<?xml version="1.0" encoding="UTF-8"?>
<svg version="1.1" xmlns="http://www.w3.org/2000/svg" width="1024" height="1536">
<path d="M0 0 C337.92 0 675.84 0 1024 0 C1024 506.88 1024 1013.76 1024 1536 C686.08 1536 348.16 1536 0 1536 C0 1029.12 0 522.24 0 0 Z " fill="#FEEEEA" transform="translate(0,0)"/>
<path d="M0 0 C0.33 0 0.66 0 1 0 C1 275.88 1 551.76 1 836 C-336.92 836 -674.84 836 -1023 836 C-1023 726.77 -1023 617.54 -1023 505 C-1014.71221283 506.10503829 -1006.642804 507.18758897 -998.45898438 508.69970703 C-978.42688859 512.38164614 -958.25719316 514.92729884 -938 517 C-936.74491638 517.12855377 -936.74491638 517.12855377 -935.46447754 517.25970459 C-882.68969397 522.55583403 -827.75645279 522.38326635 -775 517 C-774.23759003 516.92311951 -773.47518005 516.84623901 -772.68966675 516.76702881 C-767.12368699 516.2028826 -761.56113164 515.6099864 -756 515 C-755.24664368 514.91756042 -754.49328735 514.83512085 -753.71710205 514.75018311 C-726.23946543 511.72040879 -699.11986841 507.34377261 -672 502 C-671.27524475 501.85818298 -670.5504895 501.71636597 -669.80377197 501.57025146 C-632.68663594 494.28869976 -595.96304513 484.14640451 -560.04589844 472.32519531 C-556.66006712 471.21184649 -553.26594185 470.12667254 -549.86854553 469.04920959 C-528.84152663 462.3684282 -508.44461747 454.42032093 -488.1060791 445.88342285 C-486.11452702 445.04803988 -484.12150579 444.21628117 -482.12792969 443.38574219 C-457.0873862 432.92696026 -432.53059113 421.46729097 -408.33691406 409.18017578 C-406.18689206 408.09438322 -404.02987273 407.02513833 -401.8671875 405.96484375 C-382.72782678 396.56989742 -364.26177638 385.98796455 -346 375 C-345.02289062 374.41395996 -344.04578125 373.82791992 -343.0390625 373.22412109 C-331.16258941 366.09245325 -319.43045577 358.82686655 -308 351 C-306.55748951 350.0192402 -305.1147704 349.03878718 -303.671875 348.05859375 C-298.76978927 344.72232945 -293.88337117 341.3635787 -289 338 C-288.06494629 337.35691895 -287.12989258 336.71383789 -286.16650391 336.05126953 C-273.91408503 327.61534532 -261.80821744 319.04785492 -250 310 C-248.84006847 309.11819391 -247.67991617 308.23667813 -246.51953125 307.35546875 C-239.55580538 302.05140733 -232.74854802 296.57525985 -226 291 C-224.64115751 289.89127412 -223.28174047 288.78325219 -221.921875 287.67578125 C-214.64943605 281.74063465 -207.4652431 275.77382844 -200.58984375 269.37890625 C-198.4601771 267.42269661 -196.30555359 265.51187347 -194.125 263.61328125 C-180.81798175 251.99889712 -168.36862739 239.47302911 -155.875 227 C-154.7799968 225.90887909 -154.7799968 225.90887909 -153.66287231 224.79571533 C-151.54049634 222.6792672 -149.4219668 220.55904563 -147.3046875 218.4375 C-146.67287064 217.80766205 -146.04105377 217.1778241 -145.39009094 216.52890015 C-141.62655725 212.7460666 -138.04809486 208.84900561 -134.56665039 204.80476379 C-132.15872512 202.03086071 -129.63753797 199.36624356 -127.125 196.6875 C-121.82499883 190.98898381 -116.86427443 185.07588857 -112 179 C-110.56418303 177.24861886 -109.12664937 175.49864386 -107.6875 173.75 C-106.12395625 171.83418469 -104.56153414 169.91745364 -103 168 C-102.32928467 167.18088135 -102.32928467 167.18088135 -101.64501953 166.34521484 C-93.89210795 156.86233673 -86.61012125 147.10330725 -79.51220703 137.12207031 C-78.11881676 135.16673478 -76.71620101 133.21855213 -75.30859375 131.2734375 C-69.32373166 122.98839302 -63.60574957 114.54540651 -58 106 C-57.30648437 104.95070313 -56.61296875 103.90140625 -55.8984375 102.8203125 C-34.63924613 70.25473471 -15.2042879 35.82883554 0 0 Z " fill="#FEF7EE" transform="translate(1023,700)"/>
<path d="M0 0 C3.3348613 2.17240038 6.5866792 4.43110362 9.8203125 6.75 C20.88836727 14.58194048 31.13662266 20.13005696 45 19 C54.72715655 17.00468584 62.62761443 12.53906655 70.375 6.5 C77.85324221 0.86248432 85.20698134 -4.22412733 95 -3 C102.53386921 -1.30574427 108.48144673 1.78978793 114.9375 5.9375 C121.72636788 10.16102695 128.20048037 13.94826069 136 16 C136.6703125 16.18691406 137.340625 16.37382813 138.03125 16.56640625 C152.95392884 19.85294861 167.08756628 11.41363407 179.92211914 4.98388672 C183.64453552 3.22130441 186.54872152 2.86424465 190.625 2.875 C191.60726563 2.87242187 192.58953125 2.86984375 193.6015625 2.8671875 C196 3 196 3 197 4 C197.09409479 6.02494231 197.11743122 8.0531987 197.11352539 10.08032227 C197.11344986 11.38159561 197.11337433 12.68286896 197.11329651 14.02357483 C197.10818909 15.45451902 197.10297308 16.88546282 197.09765625 18.31640625 C197.09579203 19.7722926 197.09436815 21.22817957 197.09336853 22.68406677 C197.08954365 26.52279379 197.07971364 30.36148319 197.06866455 34.20019531 C197.05844978 38.11457816 197.05387077 42.02896706 197.04882812 45.94335938 C197.03809133 53.62892541 197.02049479 61.31445265 197 69 C202.61 69.33 208.22 69.66 214 70 C214 70.33 214 70.66 214 71 C110.38 71 6.76 71 -100 71 C-100 70.67 -100 70.34 -100 70 C-94.39 70 -88.78 70 -83 70 C-83.33 48.55 -83.66 27.1 -84 5 C-80.44355588 6.42257765 -77.7710649 7.7232163 -74.5625 9.625 C-66.69931909 13.56829162 -57.9173379 13.23116334 -49.625 10.625 C-43.92225029 8.28627947 -38.78101817 4.92420475 -33.65673828 1.52978516 C-22.93431674 -5.52310225 -11.35273818 -6.32581994 0 0 Z " fill="#FEF8EE" transform="translate(455,630)"/>
<path d="M0 0 C0.83556215 -0.00384115 1.67112429 -0.00768229 2.5320065 -0.01163983 C3.90124898 -0.01034011 3.90124898 -0.01034011 5.29815292 -0.00901413 C6.27189511 -0.01198525 7.2456373 -0.01495637 8.24888682 -0.01801753 C11.52066825 -0.02670806 14.79241311 -0.02821308 18.06420517 -0.02970505 C20.40646569 -0.03433296 22.74872546 -0.03935759 25.09098434 -0.04475021 C31.46091591 -0.05787865 37.83083693 -0.06432003 44.20077991 -0.06876087 C48.17955607 -0.07169085 52.15832933 -0.07579551 56.13710403 -0.08026505 C67.15700884 -0.09245657 78.17691171 -0.10275603 89.19682312 -0.10614014 C89.90192923 -0.1063597 90.60703534 -0.10657927 91.3335083 -0.10680549 C92.04028479 -0.10702377 92.74706129 -0.10724204 93.47525525 -0.10746694 C94.90741174 -0.1079104 96.33956822 -0.10835696 97.7717247 -0.10880661 C98.48212114 -0.10902804 99.19251758 -0.10924947 99.92444119 -0.10947761 C111.432462 -0.11342467 122.94041945 -0.13087637 134.44841579 -0.15416613 C146.26851328 -0.17789407 158.08857901 -0.19034265 169.9087007 -0.19150805 C176.5432312 -0.19242402 183.17768874 -0.19847596 189.81219864 -0.21632767 C196.05350356 -0.23279448 202.2946518 -0.23497049 208.53597069 -0.22618866 C210.82567451 -0.22541755 213.1153867 -0.2297707 215.40506935 -0.23964691 C218.53327289 -0.25234774 221.66091998 -0.24649937 224.78911972 -0.23606491 C225.69302515 -0.24412132 226.59693058 -0.25217772 227.52822709 -0.26047826 C234.91012848 -0.20297711 241.35332589 1.2826023 247.04760361 6.31892776 C247.98346298 7.1136348 247.98346298 7.1136348 248.93822861 7.92439651 C253.83313832 13.73453094 255.39524381 19.30564359 255.18822861 26.78767776 C255.18256882 27.5754158 255.17690903 28.36315384 255.17107773 29.17476273 C255.14890263 31.66096811 255.09874698 34.14566704 255.04760361 36.63142776 C255.027514 38.32932344 255.00926757 40.02724198 254.99291611 41.72517776 C254.94910051 45.86116416 254.88020966 49.99604166 254.79760361 54.13142776 C253.70983627 54.20164139 253.70983627 54.20164139 252.60009384 54.27327347 C247.3277012 54.67154615 242.7283963 55.10996677 237.86010361 57.31892776 C236.86108017 57.76365433 235.86205673 58.20838089 234.83275986 58.66658401 C231.7867681 60.13665726 228.79471468 61.68948964 225.79760361 63.25642776 C214.92532317 68.7707347 204.40942772 70.83776584 192.61010361 67.63142776 C183.48117676 64.62764738 175.51515783 59.60925552 167.54760361 54.31892776 C161.41668805 50.43295131 154.03667123 48.22654431 146.79760361 49.13142776 C139.49587831 51.40556397 133.78732161 54.96452734 127.79760361 59.63142776 C117.43325406 67.70683086 107.11279532 72.18262711 93.79760361 71.13142776 C82.12107428 68.96502767 72.82211788 62.29233759 63.59838486 55.18611526 C55.08365723 48.93960657 47.23043773 47.24904876 36.79760361 48.13142776 C30.37029694 49.60851066 25.15970579 53.11071754 19.73510361 56.69392776 C9.9610549 63.12935488 1.68857976 65.77468562 -10.20239639 64.13142776 C-15.34815083 62.25135882 -20.29484932 60.03897484 -24.20239639 56.13142776 C-24.4146806 53.58307376 -24.50637441 51.14632031 -24.50317764 48.59627151 C-24.50746277 47.8435849 -24.51174789 47.09089828 -24.51616287 46.31540298 C-24.5219137 44.71738566 -24.5224009 43.11934215 -24.51807022 41.52132034 C-24.51493981 39.10247371 -24.53825418 36.68488601 -24.56372452 34.26619339 C-24.60267625 24.88848677 -24.43477238 16.93381495 -19.01489639 8.88142776 C-13.46037838 3.45034348 -7.88010449 0.01363919 0 0 Z " fill="#F8CFC9" transform="translate(396.20239639282227,578.8685722351074)"/>
<path d="M0 0 C1.543362 -0.00542836 3.08671881 -0.01255501 4.63006592 -0.02124023 C8.79955637 -0.03939186 12.96864852 -0.03244009 17.13814545 -0.01972389 C21.51414515 -0.00955369 25.89011215 -0.01900069 30.26611328 -0.02526855 C37.61301762 -0.0325333 44.95976079 -0.02298814 52.30664062 -0.00390625 C60.78473642 0.01786028 69.26244735 0.01080808 77.74053383 -0.01121187 C85.03679496 -0.02939939 92.33294065 -0.03190785 99.62921715 -0.0214572 C103.97945839 -0.01524064 108.32951909 -0.01433575 112.67974854 -0.02760315 C116.77082466 -0.03921001 120.86140754 -0.03104845 124.95243073 -0.00802612 C126.44832798 -0.00276471 127.94426718 -0.00420855 129.4401474 -0.01307678 C137.57827504 -0.05685256 144.47190315 0.24054235 151.6171875 4.51757812 C152.9784375 5.32195312 152.9784375 5.32195312 154.3671875 6.14257812 C163.30899422 15.58115189 162.21999051 26.49147991 161.9296875 38.64257812 C161.9045671 40.47588096 161.88176056 42.30921705 161.86132812 44.14257812 C161.80664303 48.60174239 161.72058012 53.05928816 161.6171875 57.51757812 C146.83003891 58.07175945 146.83003891 58.07175945 140.5546875 54.51757812 C139.41257812 53.8859375 138.27046875 53.25429688 137.09375 52.60351562 C135.93165886 51.91362677 134.77284473 51.21819129 133.6171875 50.51757812 C133.01358398 50.15438477 132.40998047 49.79119141 131.78808594 49.41699219 C128.92332662 47.68350025 126.08391038 45.92172418 123.26171875 44.11914062 C117.6607776 40.72713786 111.99267085 40.85265041 105.6171875 41.51757812 C98.27637814 43.78736081 92.57193494 48.78871915 86.58984375 53.42773438 C82.51414203 56.29304373 78.33912622 58.01229216 73.6171875 59.51757812 C72.1321875 60.01257813 72.1321875 60.01257813 70.6171875 60.51757812 C57.53237145 62.00670831 47.35410652 55.61050801 36.828125 48.68164062 C29.16526523 43.67861648 22.1031365 39.19956956 12.6171875 40.51757812 C6.70049656 41.82324948 2.55800781 44.89203511 -2.078125 48.66992188 C-4.38857112 50.52219478 -6.74728415 52.22711621 -9.1953125 53.89257812 C-9.90300781 54.3746875 -10.61070312 54.85679687 -11.33984375 55.35351562 C-15.5413323 57.74748042 -19.60261474 57.91592794 -24.3828125 57.51757812 C-28.20181009 56.06041991 -31.4830696 54.41732103 -34.3828125 51.51757812 C-34.78478985 47.04866192 -34.71174837 42.56437049 -34.69848633 38.0793457 C-34.69534876 35.85577361 -34.71869781 33.63356154 -34.74414062 31.41015625 C-34.74641608 29.98372562 -34.74711597 28.55729145 -34.74609375 27.13085938 C-34.74907471 25.83962158 -34.75205566 24.54838379 -34.75512695 23.21801758 C-34.17428222 17.44499225 -32.05104251 12.77383792 -28.2578125 8.33007812 C-27.73960937 7.69714844 -27.22140625 7.06421875 -26.6875 6.41210938 C-18.68408072 -0.16697258 -9.8922241 -0.05864543 0 0 Z " fill="#F8CFC9" transform="translate(448.3828125,483.482421875)"/>
<path d="M0 0 C9.45477284 6.41185745 19.13750604 10.95607287 30.71875 9.84375 C38.78387367 8.07801286 45.11904375 3.80524366 51.69140625 -0.96484375 C60.38496248 -7.25785671 66.82367614 -10.3073266 77.71875 -9.15625 C81.3679645 -7.96216452 84.46092434 -6.17070433 87.71875 -4.15625 C88.79640625 -3.49367188 89.8740625 -2.83109375 90.984375 -2.1484375 C93.1849126 -0.79329888 95.3659204 0.58303466 97.54296875 1.9765625 C105.9364866 6.91149673 113.16510667 7.48717901 122.71875 7.84375 C122.74339928 13.09480442 122.76158568 18.34582545 122.77368164 23.59692383 C122.77872218 25.38469021 122.78555454 27.17245245 122.79418945 28.96020508 C122.8062673 31.52426168 122.81198094 34.08826397 122.81640625 36.65234375 C122.82156754 37.4565123 122.82672882 38.26068085 122.83204651 39.08921814 C122.83224215 41.00776715 122.78076983 42.92620368 122.71875 44.84375 C120.98904242 46.57345758 118.76545383 45.96612685 116.45973819 45.97283131 C115.70002517 45.96991847 114.94031215 45.96700563 114.15757751 45.96400452 C112.95573148 45.96528615 112.95573148 45.96528615 111.72960573 45.96659368 C109.02406066 45.96825093 106.31857654 45.96272314 103.61303711 45.95727539 C101.68187969 45.95699355 99.75072217 45.9571512 97.81956482 45.9577179 C92.55945191 45.95800598 87.29936159 45.95210757 82.03925395 45.94514394 C76.54859578 45.93891212 71.05793716 45.93830674 65.567276 45.93711853 C55.16209309 45.9340047 44.75692063 45.92579063 34.35174233 45.91576904 C22.50914054 45.90460949 10.66653826 45.89909785 -1.17606747 45.89407361 C-25.54446745 45.88360805 -49.91285814 45.86600763 -74.28125 45.84375 C-76.00111515 42.40401969 -75.27529059 38.45503882 -75.16015625 34.6796875 C-75.13654526 33.77247955 -75.11293427 32.86527161 -75.08860779 31.93057251 C-75.01189479 29.02647549 -74.92790335 26.12264003 -74.84375 23.21875 C-74.79053696 21.25261706 -74.73779651 19.28647127 -74.68554688 17.3203125 C-74.55626931 12.49462532 -74.42046274 7.66916038 -74.28125 2.84375 C-71.78792969 3.82948129 -69.32990248 4.82070409 -66.90625 5.96875 C-61.59415293 7.73944902 -56.6880258 7.18121964 -51.51953125 5.09375 C-47.59328256 2.90108057 -44.31099461 -0.08927571 -40.8984375 -2.99609375 C-26.81546813 -14.61979832 -13.65947659 -10.11156059 0 0 Z " fill="#FEF8EE" transform="translate(488.28125,533.15625)"/>
<path d="M0 0 C1.09580021 -0.01104769 2.19160043 -0.02209538 3.32060671 -0.03347784 C5.12583717 -0.02111669 5.12583717 -0.02111669 6.96753693 -0.00850582 C8.24628425 -0.01545135 9.52503158 -0.02239688 10.84252882 -0.02955288 C14.39459424 -0.04822423 17.94624403 -0.0418601 21.49832702 -0.03139985 C25.32799043 -0.0244205 29.15756736 -0.04039605 32.98720551 -0.05339718 C40.49049757 -0.07506333 47.99363814 -0.07490369 55.49695122 -0.06677163 C61.59380505 -0.06047756 67.69061461 -0.06160321 73.78746796 -0.06804371 C75.08795478 -0.06939619 75.08795478 -0.06939619 76.41471407 -0.070776 C78.17586602 -0.07262715 79.93701796 -0.07448971 81.69816989 -0.07636356 C98.22125082 -0.09295097 114.74424643 -0.08421465 131.26732224 -0.06737798 C146.39287905 -0.05267835 161.51823726 -0.06731141 176.64376849 -0.09614814 C192.16578648 -0.12552097 207.68771275 -0.13652073 223.20975733 -0.12696594 C224.96451217 -0.12594336 226.71926703 -0.12494875 228.47402191 -0.12398243 C229.76915748 -0.12326784 229.76915748 -0.12326784 231.09045741 -0.12253882 C237.18159417 -0.12037199 243.27264435 -0.13019298 249.3637619 -0.14475346 C256.78457469 -0.16224469 264.20513417 -0.16220577 271.62593687 -0.1394018 C275.41386384 -0.12823044 279.201344 -0.12516175 282.98925209 -0.14370251 C287.09118973 -0.16352242 291.19203098 -0.14478835 295.29395294 -0.12203121 C296.49743991 -0.13386694 297.70092689 -0.14570267 298.94088316 -0.15789706 C306.97302818 -0.06684432 306.97302818 -0.06684432 310.36859131 2.89136696 C312.43582554 7.17403523 312.36020135 10.86145579 311.63074493 15.50615788 C309.23989861 20.5637174 306.80604644 22.55085167 301.63074493 24.50615788 C297.57189416 24.95090216 293.53314549 24.92368264 289.45326996 24.90729618 C287.59701403 24.91749118 287.59701403 24.91749118 285.70325798 24.92789215 C282.2754948 24.94358594 278.84820412 24.94584909 275.42043865 24.94230902 C271.72095484 24.94169625 268.02154118 24.95826024 264.32209015 24.97248173 C257.07744838 24.99738536 249.83287984 25.00564548 242.58819885 25.00731886 C236.69975632 25.00874487 230.81133795 25.01491173 224.92290306 25.02442074 C208.22652823 25.05083426 191.53021122 25.06467955 174.83381534 25.06242932 C173.93398717 25.06230945 173.03415899 25.06218958 172.10706329 25.06206608 C170.75567265 25.06188212 170.75567265 25.06188212 169.37698119 25.06169444 C154.77087542 25.06047465 140.16500152 25.08919471 125.55896283 25.13148118 C110.56006793 25.17456237 95.56128616 25.19529238 80.5623278 25.19269985 C72.14206169 25.1917037 63.72203877 25.19995536 55.30182838 25.232234 C48.13402047 25.25953576 40.96656602 25.26608612 33.79872865 25.24570573 C30.14196607 25.23590333 26.48588182 25.2357614 22.82918358 25.26176548 C18.86420861 25.28967187 14.9002266 25.27105085 10.93520355 25.24787235 C9.20349146 25.27101839 9.20349146 25.27101839 7.43679529 25.29463202 C1.11670439 25.21281356 -2.58379648 24.57697978 -7.12409931 20.01841205 C-10.69258245 15.68445341 -10.51345308 12.05020293 -10.04894257 6.68975163 C-8.44102965 1.52410036 -5.12020981 0.00644117 0 0 Z " fill="#EBA19F" transform="translate(361.36925506591797,700.493842124939)"/>
<path d="M0 0 C3.5182883 2.5362761 5.38632948 4.84908455 6.86328125 8.953125 C9.06753212 14.96025048 9.06753212 14.96025048 13.6875 19.16796875 C15.78067899 20.11799014 17.88380953 21.04637569 19.99609375 21.953125 C25.80848163 24.80927851 29.39637472 29.56810828 31.8828125 35.46484375 C34.33806935 43.38304709 32.52714526 50.13111567 28.9453125 57.40234375 C20.06263188 70.84358481 0.01074984 74.03382205 -14.55859375 77.15234375 C-24.89064968 79.01444144 -38.70608914 80.95840913 -48.2578125 75.73828125 C-53.04220707 72.1811879 -56.1992015 68.07794799 -58.0546875 62.40234375 C-60.18016703 44.87949509 -52.70782091 24.18447844 -42.96484375 9.7734375 C-39.81704855 5.86605164 -36.29251867 3.05459183 -32.0546875 0.40234375 C-31.04148437 -0.24734375 -31.04148437 -0.24734375 -30.0078125 -0.91015625 C-20.76750335 -5.91242887 -8.92230705 -5.31510371 0 0 Z " fill="#EBA19F" transform="translate(535.0546875,403.59765625)"/>
<path d="M0 0 C46.93907563 0 46.93907563 0 56.40625 9.234375 C61.31557122 14.67313282 61.53763775 19.76578236 61.34375 26.875 C60.57426843 33.87028699 56.71305452 37.65105067 51.390625 41.93359375 C50.93171875 42.28550781 50.4728125 42.63742187 50 43 C52.10009013 44.63340343 54.03802994 46.01852741 56.4375 47.1875 C60.26256221 49.8930318 62.40038007 52.56826608 64 57 C64.90711856 64.16310862 65.34445402 71.97249533 61.37109375 78.296875 C54.87904871 86.3610677 49.68364611 87.71272427 39 91 C26.13 91 13.26 91 0 91 C0 60.97 0 30.94 0 0 Z " fill="#EBA19E" transform="translate(464,796)"/>
<path d="M0 0 C7.22008004 4.66188621 10.97405942 11.05297959 14 19 C16.17371054 29.15715654 16.10682935 40.10682625 10.67578125 49.22265625 C5.38737597 56.64863217 -1.02072669 61.93465669 -10 64 C-20.73373153 65.20333313 -30.19808212 64.92080139 -39.1328125 58.45703125 C-46.06371016 52.86883517 -50.95390666 46.01359876 -52 37 C-52.86834683 25.07025042 -51.5882811 15.53955339 -44 6 C-33.29142081 -5.70883109 -13.56826003 -8.1751207 0 0 Z " fill="#EBA19E" transform="translate(794,824)"/>
<path d="M0 0 C6.43729053 4.52410978 10.32965005 10.81145924 12.3125 18.375 C13.5776674 30.37368434 13.22611427 42.53573946 5.4375 52.3125 C-1.46052138 59.52015825 -9.14503634 62.41584765 -18.93286133 62.78149414 C-26.31789139 62.8830533 -32.31679522 62.4560223 -38.6875 58.375 C-39.30753906 58.03597656 -39.92757812 57.69695313 -40.56640625 57.34765625 C-47.62812834 53.06181628 -51.62191582 45.17517406 -53.6875 37.375 C-54.90317156 26.26319271 -54.51799565 15.88525544 -47.69921875 6.6953125 C-35.35754325 -8.0123837 -16.20850354 -9.67671853 0 0 Z " fill="#EBA19E" transform="translate(871.6875,825.625)"/>
<path d="M0 0 C5.28 0 10.56 0 16 0 C16 12.54 16 25.08 16 38 C28.21 38 40.42 38 53 38 C53 25.46 53 12.92 53 0 C58.61 0 64.22 0 70 0 C70 29.7 70 59.4 70 90 C64.72 90 59.44 90 54 90 C54 77.79 54 65.58 54 53 C41.46 53 28.92 53 16 53 C16 65.54 16 78.08 16 91 C10.72 91 5.44 91 0 91 C0 60.97 0 30.94 0 0 Z " fill="#EBA09D" transform="translate(611,796)"/>
<path d="M0 0 C8.26684951 5.20867376 14.4637228 11.65317362 18.4375 20.64453125 C18.4375 21.30453125 18.4375 21.96453125 18.4375 22.64453125 C16.54364563 23.15197548 14.64731334 23.65017699 12.75 24.14453125 C11.69425781 24.42296875 10.63851562 24.70140625 9.55078125 24.98828125 C6.68292609 25.59279777 4.34648221 25.98195274 1.4375 25.64453125 C0.04037726 23.68855941 -1.28177629 21.67862185 -2.5625 19.64453125 C-8.23723274 13.71944265 -13.21331614 11.5900044 -21.4375 11.33203125 C-28.78832222 11.47759209 -34.59355435 13.03327273 -40.1796875 18.0546875 C-47.65263576 26.64646699 -48.10872372 35.88646886 -47.703125 46.73876953 C-47.18137472 53.80957281 -44.05539624 60.58457803 -38.703125 65.2734375 C-31.19697782 71.12879667 -25.06213335 72.56843574 -15.5625 71.64453125 C-7.78253317 69.90340553 -3.12039851 66.08413098 1.4375 59.64453125 C1.9325 58.65453125 1.9325 58.65453125 2.4375 57.64453125 C4.33350369 57.95599597 6.22929587 58.26874842 8.125 58.58203125 C9.18074219 58.75605469 10.23648438 58.93007813 11.32421875 59.109375 C14.03999604 59.57620246 16.73874235 60.08875741 19.4375 60.64453125 C17.22433336 69.49719781 10.77314162 76.48194785 3.4375 81.64453125 C-8.16275266 87.94972476 -20.88081542 89.6448793 -33.87109375 86.9609375 C-45.34291771 83.03936364 -55.57153842 75.3603903 -61.203125 64.47265625 C-66.54508855 51.88527087 -68.44475735 35.6185237 -64.0625 22.39453125 C-58.5219056 10.3964131 -49.83463596 1.54447664 -37.5625 -3.35546875 C-24.96336064 -7.50051105 -11.70844763 -6.19334044 0 0 Z " fill="#EBA19E" transform="translate(218.5625,800.35546875)"/>
<path d="M0 0 C7.32709831 5.58490461 11.21240024 12.06200122 13 21 C13 25.62 13 30.24 13 35 C-2.51 35 -18.02 35 -34 35 C-31.05625571 44.00952191 -31.05625571 44.00952191 -25 49 C-19.60080143 50.79973286 -14.06442735 50.70112627 -8.6875 48.875 C-5.40588327 46.58549996 -3.40788055 44.18690072 -1 41 C3.29 42.65 7.58 44.3 12 46 C10.49229776 52.03080898 6.79580498 56.05343271 1.7109375 59.59375 C-7.26446871 64.75685993 -18.71973305 65.86829724 -28.80078125 63.28125 C-31.00611644 62.33665047 -32.97052003 61.27579342 -35 60 C-35.62132812 59.66097656 -36.24265625 59.32195313 -36.8828125 58.97265625 C-43.3515722 55.03819418 -46.50212994 48.54042014 -49.375 41.75 C-51.31071618 30.13570291 -50.49884176 19.38076676 -44.3125 9.25 C-34.1172901 -4.9981205 -15.31983501 -8.61589457 0 0 Z " fill="#EBA19E" transform="translate(437,824)"/>
<path d="M0 0 C4.71337906 4.98271501 7.26998058 11.32463522 7.39282227 18.15112305 C7.4227401 19.62230843 7.4227401 19.62230843 7.45326233 21.12321472 C7.46997482 22.17954605 7.48668732 23.23587738 7.50390625 24.32421875 C7.52468735 25.40758011 7.54546844 26.49094147 7.56687927 27.60713196 C7.63231797 31.07135616 7.69123353 34.5356568 7.75 38 C7.79319061 40.34701315 7.83680507 42.69401853 7.88085938 45.04101562 C7.98799361 50.79809854 8.08927727 56.55525842 8.1875 62.3125 C2.9075 62.3125 -2.3725 62.3125 -7.8125 62.3125 C-8.1425 60.6625 -8.4725 59.0125 -8.8125 57.3125 C-9.34359375 57.66183594 -9.8746875 58.01117187 -10.421875 58.37109375 C-11.48148437 59.05365234 -11.48148437 59.05365234 -12.5625 59.75 C-13.25859375 60.20246094 -13.9546875 60.65492188 -14.671875 61.12109375 C-21.10707606 64.70272937 -30.33488173 64.48118653 -37.296875 62.6640625 C-42.23866943 60.42301619 -45.80803223 56.79321146 -48.8125 52.3125 C-50.74433169 46.51700493 -51.13620726 39.53587874 -48.7890625 33.8203125 C-44.48927955 27.52505017 -38.09331783 24.84122986 -30.8125 23.3125 C-29.00668245 23.23258896 -27.19818191 23.20480177 -25.390625 23.21484375 C-24.36582031 23.21806641 -23.34101563 23.22128906 -22.28515625 23.22460938 C-21.22167969 23.23298828 -20.15820312 23.24136719 -19.0625 23.25 C-17.98355469 23.25451172 -16.90460938 23.25902344 -15.79296875 23.26367188 C-13.13275617 23.27544273 -10.47265635 23.29188601 -7.8125 23.3125 C-8.06870684 21.7059324 -8.34305871 20.1022517 -8.625 18.5 C-8.77582031 17.60667969 -8.92664063 16.71335937 -9.08203125 15.79296875 C-9.88372757 13.07063099 -10.53281846 11.97256369 -12.8125 10.3125 C-15.53687278 9.98592832 -17.96739763 9.84804403 -20.6875 9.875 C-21.39519531 9.85501953 -22.10289062 9.83503906 -22.83203125 9.81445312 C-26.5349315 9.81790089 -28.62460434 10.19114034 -31.7578125 12.21484375 C-33.85442277 14.14101694 -33.85442277 14.14101694 -34.8125 16.3125 C-39.64878305 15.32206295 -44.28868873 14.35551154 -48.8125 12.3125 C-47.33178876 5.56703769 -43.40685501 1.64711916 -37.76171875 -2.01953125 C-26.48001691 -7.53373094 -10.6013251 -6.36079506 0 0 Z " fill="#EBA19E" transform="translate(299.8125,824.6875)"/>
<path d="M0 0 C5.28 0 10.56 0 16 0 C16.33 17.82 16.66 35.64 17 54 C27.31464772 42.32942842 27.31464772 42.32942842 32.5 34.1875 C34.86517607 31.25606842 36.54217595 29.32544601 40.29003906 28.48876953 C45.91016644 27.9734662 51.40401498 28.37950063 57 29 C54.38611916 33.09727316 51.65303345 36.63179531 48.3125 40.1875 C44.74635835 44.0609763 41.25709074 47.9660687 37.875 52 C37.12992187 52.886875 36.38484375 53.77375 35.6171875 54.6875 C33.71345467 56.93943428 33.71345467 56.93943428 34 60 C35.2312518 62.04691295 35.2312518 62.04691295 36.9296875 64.17578125 C37.55609131 64.99780029 38.18249512 65.81981934 38.82788086 66.66674805 C39.50343018 67.53984619 40.17897949 68.41294434 40.875 69.3125 C42.24990047 71.1162715 43.62359264 72.92096464 44.99609375 74.7265625 C45.67526855 75.61762695 46.35444336 76.50869141 47.05419922 77.42675781 C49.73713896 80.97483621 52.35278812 84.567454 54.9375 88.1875 C55.35563965 88.76862549 55.7737793 89.34975098 56.20458984 89.94848633 C59 93.87468498 59 93.87468498 59 95 C43.03692225 97.06503881 43.03692225 97.06503881 38.26367188 93.81933594 C35.22697491 90.61531077 33.17249916 86.81388385 31.1015625 82.94238281 C29.3122465 79.78728572 27.09922576 76.98185176 24.875 74.125 C24.12992187 73.13757813 23.38484375 72.15015625 22.6171875 71.1328125 C21.81667969 70.07707031 21.81667969 70.07707031 21 69 C18.92840229 70.14639917 18.92840229 70.14639917 17 72 C16.35929004 74.50074174 16.35929004 74.50074174 16.390625 77.32421875 C16.35839844 78.35224609 16.32617188 79.38027344 16.29296875 80.43945312 C16.27169922 82.04723633 16.27169922 82.04723633 16.25 83.6875 C16.20552734 85.31268555 16.20552734 85.31268555 16.16015625 86.97070312 C16.08942418 89.64673317 16.04245247 92.32337197 16 95 C10.72 95 5.44 95 0 95 C0 63.65 0 32.3 0 0 Z " fill="#EBA19E" transform="translate(325,792)"/>
<path d="M0 0 C5.61 0 11.22 0 17 0 C17.72445312 1.98 18.44890625 3.96 19.1953125 6 C24.08272573 19.35132741 28.97539947 32.69951844 34 46 C34.27150879 45.21052979 34.54301758 44.42105957 34.82275391 43.60766602 C39.83000129 29.05316807 44.84890895 14.50438795 50 0 C55.28 0 60.56 0 66 0 C64.10734431 6.50869646 62.0281336 12.85577262 59.59375 19.1796875 C59.27239075 20.02284515 58.95103149 20.86600281 58.61993408 21.73471069 C57.58383299 24.44964181 56.54232906 27.16245445 55.5 29.875 C54.78019523 31.75355076 54.06046926 33.63213172 53.34082031 35.51074219 C51.56107341 40.15243743 49.77557718 44.79189927 47.98852539 49.43078613 C47.06985593 51.81844186 46.1542682 54.2072462 45.24023438 56.59667969 C43.75267972 60.48471283 42.25289581 64.36787046 40.75 68.25 C40.10708008 69.93198486 40.10708008 69.93198486 39.45117188 71.64794922 C35.94853382 80.62240506 32.45154039 86.70883781 24.296875 92.1328125 C20.97825913 93.38575931 17.74197139 93.21081404 14.25 93.125 C13.55261719 93.11597656 12.85523438 93.10695313 12.13671875 93.09765625 C10.42433042 93.07419888 8.71211996 93.03833104 7 93 C7 88.71 7 84.42 7 80 C9.3203125 79.87625 9.3203125 79.87625 11.6875 79.75 C16.29759854 79.25513066 18.93751771 78.71209975 22 75 C24.30051301 70.45525363 25.56978989 66.54782551 24.01464844 61.57958984 C23.40846528 60.0284292 22.77161016 58.48900882 22.109375 56.9609375 C21.77387634 56.12475388 21.43837769 55.28857025 21.0927124 54.42704773 C20.00442133 51.73160192 18.87779961 49.05412256 17.75 46.375 C16.99784179 44.53035848 16.24849871 42.68456662 15.50195312 40.83764648 C14.02997885 37.20578582 12.54439401 33.58006545 11.04492188 29.95947266 C8.45197206 23.69058412 5.96594517 17.38240112 3.5 11.0625 C3.13358398 10.14194824 2.76716797 9.22139648 2.38964844 8.27294922 C2.06512695 7.45197754 1.74060547 6.63100586 1.40625 5.78515625 C1.13103516 5.09301025 0.85582031 4.40086426 0.57226562 3.68774414 C0 2 0 2 0 0 Z " fill="#EBA09E" transform="translate(535,821)"/>
<path d="M0 0 C5.28 0 10.56 0 16 0 C16 5.61 16 11.22 16 17 C20.29 17 24.58 17 29 17 C29 21.29 29 25.58 29 30 C24.71 30 20.42 30 16 30 C16.09340698 35.23306886 16.19947109 40.465668 16.31738281 45.69824219 C16.35571565 47.47909473 16.39056089 49.26002584 16.421875 51.04101562 C16.46743271 53.59794234 16.52544107 56.1543261 16.5859375 58.7109375 C16.59748871 59.50994476 16.60903992 60.30895203 16.62094116 61.13217163 C16.57258944 65.53457212 16.57258944 65.53457212 19 69 C21.43252661 69.46162427 21.43252661 69.46162427 24.125 69.625 C26.538125 69.810625 26.538125 69.810625 29 70 C29 74.62 29 79.24 29 84 C12.80796756 84.62881679 12.80796756 84.62881679 6 80 C1.82569611 75.82569611 -0.08489931 71.64143689 -0.22705078 65.76049805 C-0.22673632 64.09420473 -0.21556719 62.42788899 -0.1953125 60.76171875 C-0.1924826 59.88095169 -0.18965271 59.00018463 -0.18673706 58.09272766 C-0.17557833 55.29084455 -0.15048171 52.48928584 -0.125 49.6875 C-0.11496463 47.78320775 -0.10583975 45.87891048 -0.09765625 43.97460938 C-0.07565309 39.31628203 -0.04115294 34.65819594 0 30 C-3.63 30 -7.26 30 -11 30 C-11 25.71 -11 21.42 -11 17 C-7.37 17 -3.74 17 0 17 C0 11.39 0 5.78 0 0 Z " fill="#EBA19E" transform="translate(704,804)"/>
<path d="M0 0 C5.53224501 1.94653065 8.56163187 5.00468859 11.08984375 10.26953125 C13.17368459 16.52105377 12.89232858 24.23315086 10.875 30.5 C8.42879635 35.06624681 5.69051147 37.65474427 1 40 C-4.58393133 40.5099099 -9.44052088 40.73870063 -14.5625 38.3125 C-19.22662824 33.88755782 -20.80040769 29.86954846 -21.23828125 23.57421875 C-21.48871781 10.45925139 -21.48871781 10.45925139 -17 5 C-11.38718304 -0.07826296 -7.40586841 -0.6266504 0 0 Z " fill="#FEEEEA" transform="translate(780,834)"/>
<path d="M0 0 C4.04899283 2.78403639 6.65994781 6.63051781 7.56958008 11.47045898 C7.72322442 13.62122834 7.74248197 15.71961025 7.6875 17.875 C7.67686523 18.62346191 7.66623047 19.37192383 7.65527344 20.14306641 C7.4242442 26.83852779 6.19992413 31.60764703 1.125 36.375 C-3.91625711 39.13956035 -9.21549819 39.11758262 -14.8125 38.4375 C-19.22406207 36.66811449 -21.26294523 34.47971446 -23.47265625 30.2890625 C-25.13228545 26.1530147 -25.29316656 22.2897622 -25.25 17.875 C-25.26998047 17.14603516 -25.28996094 16.41707031 -25.31054688 15.66601562 C-25.30483927 9.32486096 -22.93876318 5.8959918 -18.8125 1.125 C-13.9139737 -3.00813157 -5.55342463 -2.80064949 0 0 Z " fill="#FEEEEA" transform="translate(859.8125,835.5625)"/>
<path d="M0 0 C3.90442634 0.89244031 5.54454458 2.41821292 7.625 5.6875 C9.74478794 9.34530443 11.44518398 13.07204374 13 17 C14.0725 16.360625 15.145 15.72125 16.25 15.0625 C21.33309637 12.18546745 25.09106854 11.77702145 31 12 C32 13 32 13 32.0625 16.9375 C31.34329742 23.32812866 27.20169606 27.41546147 23 32 C23.91136719 32.27070313 24.82273437 32.54140625 25.76171875 32.8203125 C28.72587408 33.90013748 30.47024227 34.83411629 32.8125 36.875 C33.39644531 37.36742187 33.98039063 37.85984375 34.58203125 38.3671875 C36.19515476 40.22472366 36.59972242 41.59833451 37 44 C32.11593546 47.25604303 26.78108438 47.64077793 21 47 C18.73867409 45.28068148 17.47547364 43.49280326 15.87109375 41.15625 C13.51617465 38.44243926 11.33342402 37.72307267 8 36.4375 C1.19127278 33.28181786 -1.43672148 28.78950884 -3.984375 21.97265625 C-5.73808245 16.15108533 -4.97822974 10.68147581 -3 5 C-2.05215661 3.30312915 -1.0657461 1.62541165 0 0 Z " fill="#FADBC6" transform="translate(543,388)"/>
<path d="M0 0 C4.455 -0.0928125 4.455 -0.0928125 9 -0.1875 C9.91910156 -0.21481201 10.83820313 -0.24212402 11.78515625 -0.27026367 C18.91923304 -0.3413903 24.42134667 0.79740028 30 5.5625 C32.68084935 10.17020982 33.03354571 13.78991303 32 19 C29.24591855 23.7335775 26.41298297 25.58746801 21.3046875 27.40893555 C17.21694458 28.45728572 13.19104444 28.31204103 9 28.1875 C6.03 28.125625 3.06 28.06375 0 28 C0 18.76 0 9.52 0 0 Z " fill="#FEEEEA" transform="translate(480,846)"/>
<path d="M0 0 C3.01125 -0.061875 6.0225 -0.12375 9.125 -0.1875 C10.06230957 -0.21481201 10.99961914 -0.24212402 11.96533203 -0.27026367 C17.93179662 -0.32935645 22.08443026 0.5871147 26.8125 4.5 C29.5698648 7.98298712 29.29206134 11.76511051 29 16 C27.32375739 19.68773373 25.42746406 21.85783496 22 24 C19.17588235 24.94137255 17.47081968 25.11725382 14.55078125 25.09765625 C13.78677002 25.09515869 13.02275879 25.09266113 12.2355957 25.09008789 C11.27097412 25.08098389 10.30635254 25.07187988 9.3125 25.0625 C4.7028125 25.0315625 4.7028125 25.0315625 0 25 C0 16.75 0 8.5 0 0 Z " fill="#FEEFEB" transform="translate(480,809)"/>
<path d="M0 0 C0.97453125 0.02255859 1.9490625 0.04511719 2.953125 0.06835938 C5.34535515 0.12699247 7.7343615 0.20898847 10.125 0.3125 C10.25010652 5.59199504 10.00371324 8.78880777 7.125 13.3125 C2.51726569 17.48825921 -2.13570136 17.7239273 -8.1328125 17.65234375 C-12.5929491 17.09959178 -14.09686043 15.84148811 -16.875 12.3125 C-17.625 8.8125 -17.625 8.8125 -16.875 5.3125 C-11.81682815 -0.4551514 -7.37309513 -0.32469592 0 0 Z " fill="#FEEFEB" transform="translate(281.875,858.6875)"/>
<path d="M0 0 C4.85280894 2.38062325 7.4056472 5.2917301 10 10 C10.33 11.65 10.66 13.3 11 15 C0.44 15 -10.12 15 -21 15 C-18.74693878 7.11428571 -18.74693878 7.11428571 -15 4.125 C-14.29875 3.55007813 -13.5975 2.97515625 -12.875 2.3828125 C-8.78701103 -0.63207936 -4.94356425 -0.59189386 0 0 Z " fill="#FEEFEB" transform="translate(424,832)"/>
<path d="M0 0 C0.33 0 0.66 0 1 0 C1.33 14.19 1.66 28.38 2 43 C-3.28 43 -8.56 43 -14 43 C-14 41.02 -14 39.04 -14 37 C-13.67 38.32 -13.34 39.64 -13 41 C-8.71 41 -4.42 41 0 41 C0 27.47 0 13.94 0 0 Z " fill="#E99693" transform="translate(306,844)"/>
<path d="M0 0 C0.625 2.3125 0.625 2.3125 1 5 C0.01 6.485 0.01 6.485 -1 8 C-4.0625 8.25 -4.0625 8.25 -7 8 C-8 7 -8 7 -8.25 4.5625 C-8.1675 3.716875 -8.085 2.87125 -8 2 C-4.77208445 -0.1519437 -3.71599191 -0.20086443 0 0 Z " fill="#FDEFEC" transform="translate(538,442)"/>
<path d="M0 0 C2.5 -0.3125 2.5 -0.3125 5 0 C5.66 0.66 6.32 1.32 7 2 C6.44444444 6.55555556 6.44444444 6.55555556 5 8 C3.00041636 8.04080783 0.99954746 8.04254356 -1 8 C-1.625 5.6875 -1.625 5.6875 -2 3 C-1.34 2.01 -0.68 1.02 0 0 Z " fill="#FEF0ED" transform="translate(510,423)"/>
<path d="M0 0 C1.32 0.66 2.64 1.32 4 2 C4.125 4.375 4.125 4.375 4 7 C2 9 2 9 -1.125 9.125 C-2.548125 9.063125 -2.548125 9.063125 -4 9 C-4.25 6.75 -4.25 6.75 -4 4 C-2 1.6875 -2 1.6875 0 0 Z " fill="#FEF2EE" transform="translate(501,449)"/>
<path d="M0 0 C0 3 0 3 -1.53125 4.82421875 C-2.1809375 5.43910156 -2.830625 6.05398438 -3.5 6.6875 C-4.1496875 7.31011719 -4.799375 7.93273437 -5.46875 8.57421875 C-5.9740625 9.04472656 -6.479375 9.51523437 -7 10 C-7.66 9.67 -8.32 9.34 -9 9 C-6.21000549 5.51250686 -3.74764169 2.49842779 0 0 Z " fill="#E99A97" transform="translate(170,803)"/>
<path d="M0 0 C0.66 1.32 1.32 2.64 2 4 C-0.25 6.5625 -0.25 6.5625 -3 9 C-5.3125 8.8125 -5.3125 8.8125 -7 8 C-6.21625 7.79375 -5.4325 7.5875 -4.625 7.375 C-1.69083714 6.19323388 -1.69083714 6.19323388 -0.6875 2.875 C-0.460625 1.92625 -0.23375 0.9775 0 0 Z " fill="#E99594" transform="translate(539,443)"/>
</svg>
